<svg xmlns="http://www.w3.org/2000/svg" width="159" height="22" viewBox="0 0 159 22" fill="none">
  <path
    d="M17.1232 20.4378L15.6783 17.0757H6.16495L4.75464 20.3559C4.59926 20.7288 4.33699 21.0474 4.00086 21.2715C3.66474 21.4956 3.2698 21.6151 2.86582 21.6151C2.5219 21.6148 2.18356 21.5281 1.88189 21.363C1.58021 21.1978 1.32488 20.9595 1.13934 20.6699C0.953803 20.3803 0.844016 20.0487 0.820052 19.7056C0.796089 19.3625 0.858722 19.0189 1.0022 18.7064L8.51337 2.36498C8.6768 2.00803 8.93932 1.70552 9.2697 1.49346C9.60008 1.28139 9.98442 1.16869 10.377 1.16874H11.3718C11.7648 1.16847 12.1497 1.28105 12.4806 1.49311C12.8115 1.70517 13.0746 2.00778 13.2386 2.36498L20.7434 18.6906C20.8869 19.0032 20.9496 19.3468 20.9256 19.6899C20.9016 20.033 20.7918 20.3646 20.6063 20.6542C20.4208 20.9437 20.1654 21.1821 19.8638 21.3472C19.5621 21.5124 19.2237 21.5991 18.8798 21.5994C18.5056 21.5983 18.1399 21.4878 17.8277 21.2814C17.5156 21.075 17.2707 20.7817 17.1232 20.4378ZM7.64453 13.6538H14.1987L10.9216 5.98836L7.64453 13.6538Z"
    fill="white"
  />
  <path
    d="M28.6141 19.8395V2.90634C28.615 2.44155 28.8 1.99603 29.1286 1.66738C29.4573 1.33872 29.9028 1.15372 30.3676 1.15289H40.9544C41.4197 1.15288 41.866 1.33752 42.1954 1.66626C42.5247 1.99501 42.7102 2.441 42.711 2.90634C42.711 3.37221 42.5259 3.819 42.1965 4.14842C41.8671 4.47785 41.4203 4.66292 40.9544 4.66292H33.0371V9.45107H40.3877C40.8528 9.45107 41.2988 9.6358 41.6276 9.96464C41.9565 10.2935 42.1412 10.7395 42.1412 11.2045C42.1412 11.6696 41.9565 12.1156 41.6276 12.4444C41.2988 12.7732 40.8528 12.958 40.3877 12.958H33.0371V18.0924H40.967C41.4329 18.0924 41.8797 18.2775 42.2091 18.6069C42.5385 18.9363 42.7236 19.3831 42.7236 19.849C42.7227 20.3143 42.5373 20.7603 42.208 21.089C41.8786 21.4178 41.4323 21.6024 40.967 21.6024H30.3802C30.1482 21.6037 29.9182 21.559 29.7036 21.4708C29.489 21.3827 29.2939 21.253 29.1297 21.0891C28.9655 20.9252 28.8354 20.7304 28.7469 20.5159C28.6584 20.3014 28.6133 20.0715 28.6141 19.8395Z"
    fill="white"
  />
  <path
    d="M53.0609 21.2373C52.3316 21.0286 51.6225 20.7547 50.9423 20.4188C50.5356 20.2163 50.2227 19.8645 50.0691 19.437C49.9154 19.0094 49.9328 18.539 50.1175 18.1239L50.149 18.0546C50.2488 17.8402 50.3908 17.6481 50.5664 17.4898C50.7421 17.3315 50.9479 17.2102 51.1716 17.1332C51.3952 17.0562 51.632 17.0251 51.8679 17.0417C52.1039 17.0583 52.334 17.1223 52.5446 17.2298C54.1165 17.9816 55.8391 18.3649 57.5815 18.3505C58.8596 18.3505 59.8386 18.1428 60.5249 17.7209C60.8389 17.556 61.1014 17.3078 61.2835 17.0035C61.4657 16.6991 61.5605 16.3505 61.5574 15.9958C61.5599 15.6769 61.4727 15.3638 61.3057 15.0922C61.1387 14.8205 60.8987 14.6013 60.613 14.4596C59.9834 14.0923 58.8669 13.7345 57.2635 13.3861C55.7791 13.1177 54.333 12.6695 52.957 12.0513C52.0114 11.6368 51.1987 10.9689 50.6086 10.1216C50.09 9.26997 49.8328 8.28485 49.8688 7.28839C49.852 6.1052 50.2126 4.94742 50.8982 3.98297C51.6352 2.97608 52.6319 2.18831 53.7818 1.7038C55.1392 1.13003 56.6023 0.848986 58.0757 0.879024C59.4964 0.872266 60.9097 1.08463 62.2657 1.50863C62.9055 1.70722 63.5252 1.96543 64.1168 2.27988C64.5054 2.49105 64.7997 2.84154 64.9405 3.26087C65.0812 3.6802 65.058 4.13728 64.8754 4.54017L64.8377 4.62831C64.7352 4.84691 64.5891 5.04226 64.4084 5.20238C64.2277 5.36251 64.0162 5.48403 63.7869 5.5595C63.5576 5.63496 63.3152 5.66278 63.0748 5.64123C62.8343 5.61969 62.6008 5.54923 62.3885 5.4342C61.0631 4.7577 59.5952 4.40798 58.1072 4.41425C56.9277 4.41425 55.9991 4.64089 55.3212 5.09421C55.0039 5.29053 54.7435 5.56638 54.5657 5.89438C54.3879 6.22238 54.2989 6.59114 54.3075 6.96414C54.2899 7.382 54.4304 7.79117 54.701 8.11002C55.0649 8.47741 55.5119 8.7517 56.0043 8.90963C56.8531 9.20797 57.7207 9.44984 58.6014 9.63367C61.2311 10.2171 63.1199 10.9621 64.2679 11.8688C65.4158 12.7754 65.9909 14.0346 65.993 15.6464C66.0255 16.5326 65.8388 17.4132 65.4494 18.21C65.0601 19.0068 64.4802 19.6952 63.761 20.2142C62.2689 21.3244 60.1901 21.8805 57.5248 21.8826C56.0138 21.8802 54.5107 21.6629 53.0609 21.2373Z"
    fill="white"
  />
  <path
    d="M78.3521 19.7578V4.83619H73.7969C73.5551 4.83619 73.3156 4.78855 73.0922 4.696C72.8687 4.60345 72.6657 4.4678 72.4947 4.29679C72.3237 4.12578 72.1881 3.92276 72.0955 3.69933C72.003 3.4759 71.9553 3.23642 71.9553 2.99458C71.9553 2.75274 72.003 2.51326 72.0955 2.28983C72.1881 2.0664 72.3237 1.8634 72.4947 1.69239C72.6657 1.52138 72.8687 1.38573 73.0922 1.29318C73.3156 1.20063 73.5551 1.153 73.7969 1.153H87.4562C87.9446 1.153 88.413 1.34703 88.7584 1.69239C89.1038 2.03776 89.2978 2.50616 89.2978 2.99458C89.2978 3.483 89.1038 3.95143 88.7584 4.29679C88.413 4.64216 87.9446 4.83619 87.4562 4.83619H82.8884V19.7578C82.8884 20.2462 82.6944 20.7146 82.349 21.06C82.0037 21.4054 81.5352 21.5994 81.0468 21.5994H80.2063C79.9634 21.6011 79.7226 21.5547 79.4977 21.4628C79.2728 21.371 79.0683 21.2357 78.8959 21.0645C78.7236 20.8933 78.5868 20.6897 78.4935 20.4655C78.4001 20.2412 78.3521 20.0007 78.3521 19.7578Z"
    fill="white"
  />
  <path
    d="M96.5037 19.8396V2.90645C96.5045 2.44166 96.6895 1.99614 97.0182 1.66749C97.3468 1.33883 97.7923 1.15383 98.2571 1.153H108.844C109.309 1.153 109.756 1.33763 110.085 1.66637C110.414 1.99512 110.6 2.44111 110.601 2.90645C110.601 3.37232 110.415 3.81911 110.086 4.14854C109.757 4.47796 109.31 4.66303 108.844 4.66303H100.914V9.45118H108.258C108.723 9.45118 109.169 9.63591 109.498 9.96475C109.827 10.2936 110.012 10.7396 110.012 11.2046C110.012 11.6697 109.827 12.1157 109.498 12.4445C109.169 12.7733 108.723 12.9581 108.258 12.9581H100.914V18.0925H108.844C109.31 18.0925 109.757 18.2776 110.086 18.607C110.415 18.9364 110.601 19.3832 110.601 19.8491C110.6 20.3144 110.414 20.7604 110.085 21.0892C109.756 21.4179 109.309 21.6025 108.844 21.6025H98.2571C98.0262 21.6021 97.7976 21.5562 97.5844 21.4673C97.3713 21.3785 97.1777 21.2485 97.0148 21.0847C96.852 20.921 96.723 20.7267 96.6353 20.5131C96.5476 20.2994 96.5028 20.0706 96.5037 19.8396Z"
    fill="white"
  />
  <path
    d="M122.72 20.5545C121.201 19.7047 119.97 18.4226 119.182 16.8713C118.371 15.1477 117.951 13.2667 117.951 11.3622C117.951 9.45778 118.371 7.57676 119.182 5.8532C119.969 4.30498 121.201 3.0277 122.72 2.18575C124.382 1.2953 126.246 0.850628 128.131 0.895065C129.452 0.891789 130.764 1.10446 132.016 1.52467C132.634 1.72818 133.23 1.99398 133.795 2.31798C134.164 2.54752 134.437 2.90505 134.56 3.32247C134.683 3.73988 134.648 4.188 134.462 4.5814C134.362 4.80366 134.218 5.00324 134.038 5.16807C133.859 5.33289 133.648 5.45949 133.418 5.54016C133.188 5.62084 132.944 5.65393 132.701 5.63739C132.458 5.62085 132.22 5.55504 132.003 5.44396C131.666 5.26974 131.316 5.1183 130.958 4.99064C130.077 4.68208 129.15 4.52559 128.216 4.52787C126.401 4.52787 125.004 5.10712 124.026 6.26559C123.048 7.42406 122.56 9.12608 122.563 11.3717C122.563 13.6173 123.05 15.3235 124.026 16.4904C125.002 17.6572 126.399 18.2417 128.216 18.2438C129.15 18.2461 130.077 18.0896 130.958 17.7811C131.316 17.6534 131.666 17.502 132.003 17.3277C132.22 17.2166 132.457 17.1506 132.7 17.1338C132.943 17.1171 133.187 17.1499 133.417 17.2302C133.647 17.3106 133.858 17.4369 134.038 17.6014C134.217 17.7659 134.362 17.9652 134.462 18.1871C134.648 18.5806 134.683 19.0287 134.56 19.4461C134.437 19.8635 134.164 20.221 133.795 20.4506C133.231 20.7769 132.635 21.0438 132.016 21.247C130.764 21.6672 129.452 21.8799 128.131 21.8766C126.243 21.9158 124.377 21.4599 122.72 20.5545Z"
    fill="white"
  />
  <path
    d="M156.625 1.15305C156.917 1.15096 157.206 1.20693 157.477 1.31772C157.747 1.42851 157.992 1.59191 158.199 1.79841C158.405 2.00492 158.569 2.25042 158.68 2.52063C158.79 2.79084 158.846 3.08037 158.844 3.3724V19.3801C158.846 19.6721 158.79 19.9617 158.68 20.2319C158.569 20.5021 158.405 20.7476 158.199 20.9541C157.992 21.1606 157.747 21.324 157.477 21.4348C157.206 21.5456 156.917 21.6015 156.625 21.5995C156.334 21.5995 156.046 21.5419 155.778 21.4302C155.51 21.3185 155.266 21.1548 155.061 20.9485C154.856 20.7422 154.694 20.4974 154.584 20.2282C154.475 19.959 154.419 19.6708 154.421 19.3801V13.0148H147.461V19.3801C147.463 19.6708 147.408 19.959 147.298 20.2282C147.188 20.4974 147.026 20.7422 146.821 20.9485C146.616 21.1548 146.373 21.3185 146.104 21.4302C145.836 21.5419 145.548 21.5995 145.257 21.5995C144.669 21.5995 144.104 21.3656 143.688 20.9494C143.272 20.5332 143.038 19.9687 143.038 19.3801V3.3724C143.038 2.78379 143.272 2.21929 143.688 1.80308C144.104 1.38687 144.669 1.15305 145.257 1.15305C145.548 1.15305 145.836 1.21056 146.104 1.32229C146.373 1.43401 146.616 1.59773 146.821 1.80402C147.026 2.01032 147.188 2.2551 147.298 2.52428C147.408 2.79345 147.463 3.0817 147.461 3.3724V9.41661H154.409V3.3724C154.407 3.08064 154.462 2.79136 154.573 2.52136C154.684 2.25136 154.847 2.00601 155.053 1.79955C155.259 1.59308 155.504 1.42962 155.774 1.31864C156.044 1.20766 156.333 1.15138 156.625 1.15305Z"
    fill="white"
  />
</svg>
