<svg xmlns="http://www.w3.org/2000/svg" width="61" height="45" viewBox="0 0 61 45" fill="none">
  <path
    d="M30.4651 44.366C28.6158 44.369 26.7959 43.9035 25.1752 43.0128C23.5546 42.1221 22.186 40.8353 21.1973 39.2725C20.8838 38.7766 20.7801 38.1764 20.9091 37.604C21.0381 37.0317 21.3892 36.534 21.8851 36.2205C22.3811 35.907 22.9812 35.8033 23.5536 35.9323C24.126 36.0613 24.6236 36.4124 24.9372 36.9083C25.395 37.6318 25.9909 38.258 26.6907 38.7512C27.3906 39.2444 28.1807 39.5949 29.016 39.7827C29.8513 39.9705 30.7154 39.9919 31.559 39.8458C32.4026 39.6997 33.2092 39.3888 33.9326 38.9309C34.6561 38.4731 35.2823 37.8772 35.7755 37.1774C36.2686 36.4776 36.6191 35.6874 36.807 34.8521C36.9948 34.0168 37.0162 33.1527 36.8701 32.3091C36.7239 31.4655 36.4131 30.6589 35.9552 29.9355L21.9119 7.7136C20.9616 6.3102 19.5023 5.33182 17.8431 4.98569C16.1839 4.63957 14.4551 4.95288 13.0229 5.85926C11.5907 6.76563 10.5676 8.19389 10.1702 9.84155C9.77275 11.4892 10.0323 13.2269 10.8938 14.6865L16.1416 22.9847C16.4551 23.4806 16.5588 24.0808 16.4298 24.6531C16.3008 25.2255 15.9497 25.7232 15.4537 26.0367C14.9578 26.3502 14.3576 26.4538 13.7853 26.3248C13.2129 26.1958 12.7152 25.8448 12.4017 25.3488L7.15398 17.0506C5.62905 14.5977 5.13544 11.6415 5.78074 8.82619C6.42604 6.0109 8.15792 3.56479 10.599 2.02092C13.04 0.477041 15.9923 -0.0394459 18.8125 0.584036C21.6327 1.20752 24.0922 2.92042 25.6549 5.34943L39.7108 27.5713C40.7577 29.2253 41.3417 31.1299 41.402 33.0864C41.4623 35.0429 40.9967 36.9798 40.0537 38.6952C39.1106 40.4105 37.7247 41.8415 36.0404 42.8389C34.3562 43.8363 32.4351 44.3637 30.4777 44.366H30.4651Z"
    fill="white"
  />
  <path
    d="M30.4647 44.438C28.4106 44.4333 26.4004 43.8437 24.6692 42.7381C22.2165 41.1826 20.4818 38.7167 19.8466 35.8825C19.2115 33.0484 19.7277 30.0781 21.2819 27.6245L24.1151 23.1228C24.4287 22.6269 24.9263 22.2758 25.4987 22.1468C26.0711 22.0178 26.6712 22.1214 27.1672 22.435C27.6631 22.7485 28.0142 23.2461 28.1432 23.8185C28.2722 24.3909 28.1685 24.991 27.855 25.487L24.9997 30.0012C24.0771 31.4638 23.772 33.2326 24.1515 34.9197C24.5309 36.6069 25.5639 38.0747 27.0239 39.0014C27.7343 39.4584 28.5287 39.7689 29.3606 39.9148C30.1925 40.0608 31.0452 40.0392 31.8687 39.8514C32.6954 39.6605 33.4762 39.308 34.1661 38.8142C34.856 38.3204 35.4415 37.695 35.8887 36.9741C36.044 36.7285 36.2461 36.5159 36.4834 36.3485C36.7208 36.181 36.9889 36.0619 37.2723 35.9981C37.5557 35.9342 37.8489 35.9268 38.1352 35.9762C38.4215 36.0257 38.6952 36.131 38.9408 36.2862C39.1863 36.4415 39.3989 36.6436 39.5664 36.8809C39.7338 37.1183 39.8529 37.3864 39.9168 37.6698C39.9806 37.9532 39.9881 38.2464 39.9386 38.5327C39.8892 38.8189 39.7838 39.0927 39.6286 39.3383C38.873 40.5493 37.8856 41.5991 36.723 42.4273C35.5604 43.2555 34.2455 43.8458 32.854 44.1642C32.0704 44.3447 31.2689 44.4366 30.4647 44.438Z"
    fill="white"
  />
  <path
    d="M46.6611 26.5165C46.2645 26.5187 45.8747 26.4138 45.5327 26.2129C45.1908 26.012 44.9094 25.7225 44.7183 25.375C44.5271 25.0275 44.4333 24.6349 44.4467 24.2385C44.4601 23.8421 44.5802 23.4567 44.7943 23.1229L50.0862 14.7523C51.0108 13.2912 51.3172 11.5227 50.9379 9.8357C50.5586 8.14872 49.5246 6.68152 48.0636 5.75686C46.6025 4.8322 44.8339 4.52583 43.1469 4.90514C41.4599 5.28445 39.9927 6.31839 39.0681 7.77948L32.3785 18.3568C32.065 18.8528 31.5674 19.2038 30.995 19.3328C30.4226 19.4618 29.8225 19.3582 29.3265 19.0447C28.8306 18.7312 28.4795 18.2335 28.3505 17.6611C28.2215 17.0888 28.3252 16.4886 28.6387 15.9927L35.3282 5.41531C36.0968 4.20052 37.097 3.149 38.2719 2.32078C39.4468 1.49256 40.7733 0.903873 42.1757 0.588312C43.5782 0.272752 45.029 0.236497 46.4454 0.481636C47.8618 0.726775 49.2161 1.24851 50.4309 2.01703C51.6457 2.78554 52.6972 3.78579 53.5254 4.96069C54.3536 6.13559 54.9423 7.46212 55.2579 8.86453C55.5734 10.2669 55.6097 11.7178 55.3645 13.1342C55.1194 14.5506 54.5977 15.9049 53.8292 17.1197L48.5342 25.4871C48.335 25.8035 48.0585 26.064 47.7308 26.2441C47.4031 26.4242 47.035 26.5179 46.6611 26.5165Z"
    fill="white"
  />
  <path
    d="M56.669 38.6552C58.957 38.6552 60.8118 36.8005 60.8118 34.5125C60.8118 32.2244 58.957 30.3696 56.669 30.3696C54.381 30.3696 52.5262 32.2244 52.5262 34.5125C52.5262 36.8005 54.381 38.6552 56.669 38.6552Z"
    fill="white"
  />
  <path
    d="M4.29844 38.6552C6.58644 38.6552 8.44123 36.8005 8.44123 34.5125C8.44123 32.2244 6.58644 30.3696 4.29844 30.3696C2.01043 30.3696 0.15564 32.2244 0.15564 34.5125C0.15564 36.8005 2.01043 38.6552 4.29844 38.6552Z"
    fill="white"
  />
</svg>
